# xmcd
#
# Track frame offsets:
#	183
#	10245
#	19878
#	28413
#	37683
#	48860
#	58788
#	67463
#	76463
#	85408
#	97223
#	106238
#	113648
#	124465
#	133733
#	144173
#	153438
#	163583
#	173350
#	182345
#	191070
#	198993
#	208340
#	219048
#	231140
#
# Disc length: 3218 seconds
#
# Revision: 2
# Processed by: cddbd v1.5.2PL0 Copyright (c) Steve Scherf et al.
# Submitted via: audiograbber 1.83.01
#
DISCID=5d0c9019
DTITLE=Fats Domino - 50 Greatest Hits Disc 2
DYEAR=1994
DGENRE=Blues
TTITLE0=I´m Walkin´
TTITLE1=The Rooster Song
TTITLE2=Valley of Tears
TTITLE3=It´s You I Love
TTITLE4=What Will I Tell My Heart
TTITLE5=When I See You
TTITLE6=Wait and See
TTITLE7=The Big Beat
TTITLE8=Yes, My Darling
TTITLE9=Sick and Tired
TTITLE10=Little Mary
TTITLE11=Whole Lotta Lovin´
TTITLE12=Telling Lies
TTITLE13=I´m Ready
TTITLE14=I Want to Walk You Home
TTITLE15=I´m Gonna Be a Wheel Someday
TTITLE16=Be My Guest
TTITLE17=I´ve Been Around
TTITLE18=Walking to New Orleans
TTITLE19=Don´t Come Knockin´
TTITLE20=Three Nights a Week
TTITLE21=My Girl Josephine
TTITLE22=What a Price
TTITLE23=Ain´t That Junt Like a Woman
TTITLE24=Let The Four Winds Blow
EXTD=
EXTT0=
EXTT1=
EXTT2=
EXTT3=
EXTT4=
EXTT5=
EXTT6=
EXTT7=
EXTT8=
EXTT9=
EXTT10=
EXTT11=
EXTT12=
EXTT13=
EXTT14=
EXTT15=
EXTT16=
EXTT17=
EXTT18=
EXTT19=
EXTT20=
EXTT21=
EXTT22=
EXTT23=
EXTT24=
PLAYORDER=
